<svg xmlns="http://www.w3.org/2000/svg" width="26" height="26" viewBox="0 0 26 26">
  <defs>
    <style>
      .cls-1 {
        fill: #7b7a7f;
        fill-rule: evenodd;
      }
    </style>
  </defs>
  <path id="首页1" class="cls-1" d="M0.916,13.11a0.915,0.915,0,0,1-.853-0.589A0.932,0.932,0,0,1,.3,11.5L12.416,0.243a0.909,0.909,0,0,1,1.241,0l12.05,11.261a0.932,0.932,0,0,1,.271.883,0.921,0.921,0,0,1-.621.679,0.908,0.908,0,0,1-.892-0.2L13.033,2.182,1.535,12.866a0.906,0.906,0,0,1-.619.244h0Zm0,0M21.3,26H4.771a2.149,2.149,0,0,1-2.135-2.158V13.814a0.915,0.915,0,1,1,1.83,0V23.842a0.307,0.307,0,0,0,.3.308H21.3a0.308,0.308,0,0,0,.3-0.308V13.814a0.927,0.927,0,0,1,.457-0.8,0.906,0.906,0,0,1,.915,0,0.927,0.927,0,0,1,.457.8V23.842A2.149,2.149,0,0,1,21.3,26h0Zm0,0-6.031,0H10.8a2.149,2.149,0,0,1-2.135-2.158V17.559A2.149,2.149,0,0,1,10.8,15.4h4.466A2.149,2.149,0,0,1,17.4,17.559v6.282A2.149,2.149,0,0,1,15.267,26h0ZM10.8,17.251a0.307,0.307,0,0,0-.3.308v6.282a0.307,0.307,0,0,0,.3.308h4.466a0.307,0.307,0,0,0,.3-0.308V17.559a0.307,0.307,0,0,0-.3-0.308H10.8Zm0,0"/>
</svg>
