<svg xmlns="http://www.w3.org/2000/svg" width="26" height="26" viewBox="0 0 26 26">
  <defs>
    <style>
      .cls-1 {
        fill: #108ee9;
        fill-rule: evenodd;
      }
    </style>
  </defs>
  <path id="我的2" class="cls-1" d="M24.679,24.419V24.145h-0.02a11.647,11.647,0,0,0-7.852-10.027A7.582,7.582,0,1,0,5.644,5.607a7.546,7.546,0,0,0,3.547,8.511A11.646,11.646,0,0,0,1.341,24.145H1.3V26H24.679V25.809c0.013-.231.021-0.461,0.021-0.694s-0.008-.47-0.021-0.7h0ZM7.323,7.568A5.677,5.677,0,1,1,13,13.21,5.659,5.659,0,0,1,7.323,7.568h0ZM13,15.19a9.964,9.964,0,0,1,9.939,8.955H3.061A9.964,9.964,0,0,1,13,15.19h0Zm0,0"/>
</svg>
