<svg xmlns="http://www.w3.org/2000/svg" width="26" height="26" viewBox="0 0 26 26">
  <defs>
    <style>
      .cls-1 {
        fill: #7b7a7f;
        fill-rule: evenodd;
      }
    </style>
  </defs>
  <path id="咨询专题2" class="cls-1" d="M24.077,0H5.8a1.936,1.936,0,0,0-1.92,1.95v22.1l0,0.3H2.57c-0.353,0-.289.065-0.289-0.294V5.136c0-.359-0.064-0.293.289-0.293V3.186A1.936,1.936,0,0,0,.65,5.136V24.05A1.936,1.936,0,0,0,2.57,26l21.51,0A1.936,1.936,0,0,0,26,24.046V1.95A1.941,1.941,0,0,0,24.077,0h0Zm0,24.34H5.8c-0.353,0-.289.065-0.289-0.294V1.95c0-.359-0.064-0.294.289-0.294H24.077c0.353,0,.289-0.065.289,0.294v22.1c0,0.359.064,0.294-.289,0.294h0Zm0,0M21.282,15.8H8.6a0.554,0.554,0,0,0-.439.62v0.355a0.552,0.552,0,0,0,.439.62H21.282a0.554,0.554,0,0,0,.439-0.62V16.416a0.552,0.552,0,0,0-.439-0.62h0Zm0,3.327H8.6a0.554,0.554,0,0,0-.439.62V20.1a0.552,0.552,0,0,0,.439.62H21.282a0.554,0.554,0,0,0,.439-0.62V19.744a0.552,0.552,0,0,0-.439-0.62h0ZM14.669,6.071h-5.2A1.325,1.325,0,0,0,8.159,7.405v5.332a1.325,1.325,0,0,0,1.313,1.334h5.2a1.325,1.325,0,0,0,1.314-1.334V7.405a1.325,1.325,0,0,0-1.314-1.334h0Zm-0.268,6.4H9.736v-4.8H14.4Zm3.023-4.781h3.73a0.713,0.713,0,0,0,.567-0.8,0.716,0.716,0,0,0-.567-0.8h-3.73a0.713,0.713,0,0,0-.567.8,0.716,0.716,0,0,0,.567.8h0Zm0,3.335h3.73a0.713,0.713,0,0,0,.567-0.8,0.716,0.716,0,0,0-.567-0.8h-3.73a0.713,0.713,0,0,0-.567.8,0.718,0.718,0,0,0,.567.8h0Zm0,3.212h3.73a0.713,0.713,0,0,0,.567-0.8,0.716,0.716,0,0,0-.567-0.8h-3.73a0.713,0.713,0,0,0-.567.8,0.716,0.716,0,0,0,.567.8h0Zm0,0"/>
</svg>
